<svg xmlns="http://www.w3.org/2000/svg" viewBox="0 0 512 512" style="height: 512px; width: 512px;"><path d="M0 0h512v512H0z" fill="#000" fill-opacity="1"></path><g class="" transform="translate(0,0)" style=""><g><path d="M54.125 102.188C38.501 177.073 74.545 225.788 118.25 252.75C85.187 244.94 53.198 233.268 20 215.906C45.5 293.394 101.164 311.722 149.906 306.656C122.973 320.908 94.514 331.956 65.969 339.436C136.009 382.948 186.956 355.441 214.969 317.156C184.783 299.323 162.277 263.362 151.937 218.812C113.937 183.998 80.523 143.8 54.124 102.187Z" class="" fill="#ffffff" fill-opacity="1"></path><path d="M457.063 102.188C430.666 143.796 397.247 183.974 359.25 218.781C348.912 263.345 326.41 299.321 296.22 317.157C324.23 355.442 375.177 382.949 445.22 339.437C416.678 331.957 388.242 320.907 361.312 306.657C410.048 311.712 465.692 293.377 491.187 215.907C457.99 233.269 426 244.942 392.937 252.751C436.642 225.788 472.687 177.074 457.062 102.188Z" class="" fill="#ffffff" fill-opacity="1"></path><path d="M255.593 128.375C232.033 128.375 210.663 131.951 194.375 138.219C186.23 141.352 179.33 145.125 173.937 150.029C168.545 154.936 164.437 161.559 164.437 169.186C164.437 170.076 164.487 170.951 164.594 171.811C167.214 236.763 196.674 289.364 231.874 304.999L238.814 308.093L237.219 315.499C228.574 355.781 216.644 379.109 196.279 392.529C185.086 399.907 182.095 405.744 181.905 407.655C181.715 409.565 182.67 411.855 188.749 415.561C200.907 422.971 228.674 428.718 255.593 428.718C282.465 428.718 308.851 422.774 320.28 415.31C325.996 411.58 327.092 409.09 326.906 406.78C326.72 404.468 323.969 398.846 313.812 391.56C294.486 377.698 282.485 355.453 273.969 315.498L272.374 308.092L279.312 304.998C314.512 289.363 343.974 236.762 346.592 171.81L346.562 171.81C346.668 170.95 346.718 170.075 346.718 169.185C346.718 161.559 342.641 154.935 337.248 150.029C331.855 145.124 324.924 141.352 316.778 138.219C300.49 131.949 279.151 128.374 255.592 128.374Z" class="selected" fill="#f8e71c" fill-opacity="1"></path><path d="M255.593 147.063C277.21 147.063 296.747 150.533 310.063 155.656C316.72 158.218 321.771 161.219 324.656 163.844C327.542 166.469 328.031 168.124 328.031 169.188C328.031 170.251 327.543 171.906 324.657 174.531C321.772 177.157 316.721 180.158 310.063 182.721C296.748 187.843 277.211 191.314 255.595 191.314C233.979 191.314 214.411 187.844 201.095 182.72C194.437 180.157 189.387 177.156 186.501 174.53C183.615 171.906 183.126 170.25 183.126 169.187C183.126 168.124 183.616 166.469 186.501 163.844C189.387 161.219 194.437 158.218 201.095 155.656C214.411 150.533 233.979 147.062 255.595 147.062Z" class="" fill="#ffffff" fill-opacity="1"></path></g></g></svg>